<?xml version="1.0" encoding="utf-8"?>
<!-- Generator: Adobe Illustrator 16.0.0, SVG Export Plug-In . SVG Version: 6.00 Build 0)  -->
<!DOCTYPE svg PUBLIC "-//W3C//DTD SVG 1.1//EN" "http://www.w3.org/Graphics/SVG/1.1/DTD/svg11.dtd">
<svg version="1.1" id="Layer_1" xmlns="http://www.w3.org/2000/svg" xmlns:xlink="http://www.w3.org/1999/xlink" x="0px" y="0px"
	 width="1303.503px" height="1303.503px" viewBox="0 0 1303.503 1303.503" enable-background="new 0 0 1303.503 1303.503"
	 xml:space="preserve">
<path fill="#212121" stroke="#212121" stroke-miterlimit="10" d="M1295.355,651.75c0,355.316-288.043,643.357-643.357,643.357
	c-355.316,0-643.354-288.041-643.354-643.357c0-355.314,288.037-643.354,643.354-643.354
	C1007.313,8.396,1295.355,296.436,1295.355,651.75z"/>
<g>
	
		<line fill="none" stroke="#F4F1EC" stroke-width="60.6" stroke-miterlimit="10" x1="867.833" y1="1019.187" x2="251.751" y2="1019.187"/>
	<g>
		<path fill="#F4F1EC" stroke="#F4F1EC" stroke-width="4" stroke-miterlimit="10" d="M280.359,354.384h17.918v-79.865h-18.601
			V254.04h40.957v100.344h16.554v19.113h-56.828V354.384z"/>
	</g>
	<g>
		<g>
			<path fill="#F4F1EC" stroke="#F4F1EC" stroke-width="4" stroke-miterlimit="10" d="M1030.261,945.702h-64.506v20.99h23.209
				c25.428,0,48.123,10.41,47.953,38.398c0,27.133-22.697,40.104-46.76,40.104c-26.279,0-48.807-9.387-48.977-37.373h22.355
				c0,13.141,15.018,16.553,26.281,16.553c10.922,0,24.744-5.119,24.744-19.283c0.17-13.482-13.311-17.408-25.598-17.408h-45.225
				c0-21.502,0-41.469,0-63.141h86.521V945.702z"/>
		</g>
	</g>
	
		<line fill="none" stroke="#F4F1EC" stroke-width="60.6" stroke-miterlimit="10" x1="1021.476" y1="259.302" x2="1021.476" y2="820.89"/>
	
		<line fill="none" stroke="#F4F1EC" stroke-width="60.6" stroke-miterlimit="10" x1="281.269" y1="759.261" x2="281.269" y2="1049.464"/>
	
		<line fill="none" stroke="#F4F1EC" stroke-width="60.6" stroke-miterlimit="10" x1="1051.751" y1="280.493" x2="435.667" y2="280.493"/>
	<g>
		<path fill="#F4F1EC" d="M281.269,759.261h145.283c8.092,0,12.137-4.439,12.713-12.211l26.586-320.367h78.594l84.375,187.668
			c9.824,22.762,20.227,52.746,20.227,52.746h1.156c0,0,10.402-29.984,20.226-52.746l84.379-187.668h78.596l26.58,320.367
			c0.58,7.771,4.627,12.211,12.715,12.211h148.582l0.195,61.629h-196.16c-27.166,0-36.412-11.104-38.725-37.756l-13.867-175.445
			c-2.313-26.1-0.58-61.076-0.58-61.076h-1.154c0,0-12.137,38.869-22.541,61.076l-68.193,145.467h-61.259l-68.191-145.467
			c-10.402-22.207-22.537-61.629-22.537-61.629h-1.156c0,0,1.736,35.529-0.578,61.629l-13.295,175.445
			c-2.313,26.652-12.137,37.756-39.297,37.756H281.269V759.261z"/>
	</g>
</g>
</svg>
