<?xml version="1.0" encoding="utf-8"?>
<!-- Generator: Adobe Illustrator 16.0.0, SVG Export Plug-In . SVG Version: 6.00 Build 0)  -->
<!DOCTYPE svg PUBLIC "-//W3C//DTD SVG 1.1//EN" "http://www.w3.org/Graphics/SVG/1.1/DTD/svg11.dtd">
<svg version="1.1" id="Layer_1" xmlns="http://www.w3.org/2000/svg" xmlns:xlink="http://www.w3.org/1999/xlink" x="0px" y="0px"
	 width="1303.503px" height="1303.503px" viewBox="0 0 1303.503 1303.503" enable-background="new 0 0 1303.503 1303.503"
	 xml:space="preserve">
<path fill="#F4F1EC" d="M1295.107,651.75c0,355.316-288.043,643.357-643.357,643.357c-355.316,0-643.354-288.041-643.354-643.357
	C8.396,296.436,296.434,8.396,651.75,8.396C1007.064,8.396,1295.107,296.436,1295.107,651.75z"/>
<g>
	
		<line fill="none" stroke="#212121" stroke-width="60.6" stroke-miterlimit="10" x1="867.834" y1="1019.188" x2="251.752" y2="1019.188"/>
	<g>
		<path fill="#212121" stroke="#212121" stroke-width="4" stroke-miterlimit="10" d="M280.359,354.385h17.918v-79.867h-18.602
			v-20.479h40.957v100.346h16.555v19.113h-56.828V354.385z"/>
	</g>
	<g>
		<g>
			<path fill="#212121" stroke="#212121" stroke-width="4" stroke-miterlimit="10" d="M1030.262,945.703h-64.508v20.99h23.209
				c25.428,0,48.125,10.41,47.955,38.396c0,27.135-22.697,40.104-46.76,40.104c-26.281,0-48.807-9.385-48.979-37.373h22.355
				c0,13.141,15.018,16.553,26.281,16.553c10.922,0,24.746-5.119,24.746-19.283c0.17-13.482-13.313-17.406-25.6-17.406H943.74
				c0-21.502,0-41.469,0-63.143h86.521V945.703z"/>
		</g>
	</g>
	
		<line fill="none" stroke="#212121" stroke-width="60.6" stroke-miterlimit="10" x1="1021.477" y1="259.301" x2="1021.477" y2="820.891"/>
	
		<line fill="none" stroke="#212121" stroke-width="60.6" stroke-miterlimit="10" x1="281.27" y1="759.262" x2="281.27" y2="1049.463"/>
	
		<line fill="none" stroke="#212121" stroke-width="60.6" stroke-miterlimit="10" x1="1051.752" y1="280.492" x2="435.668" y2="280.492"/>
	<g>
		<path fill="#212121" d="M281.27,759.262h145.283c8.092,0,12.137-4.441,12.713-12.213l26.586-320.365h78.594L628.82,614.35
			c9.824,22.764,20.227,52.748,20.227,52.748h1.156c0,0,10.402-29.984,20.227-52.748l84.379-187.666h78.596l26.58,320.365
			c0.58,7.771,4.627,12.213,12.715,12.213h148.582l0.195,61.629h-196.16c-27.166,0-36.412-11.105-38.725-37.756l-13.867-175.447
			c-2.313-26.098-0.58-61.074-0.58-61.074h-1.154c0,0-12.137,38.867-22.541,61.074l-68.193,145.467h-61.26l-68.191-145.467
			c-10.402-22.207-22.537-61.629-22.537-61.629h-1.156c0,0,1.736,35.531-0.578,61.629l-13.295,175.447
			c-2.313,26.65-12.137,37.756-39.297,37.756H281.27V759.262z"/>
	</g>
</g>
</svg>
